<?xml version="1.0" encoding="UTF-8"?>
<svg id="Layer_1" xmlns="http://www.w3.org/2000/svg" version="1.1" xmlns:xlink="http://www.w3.org/1999/xlink" viewBox="0 0 1920 1080">
  <!-- Generator: Adobe Illustrator 29.3.0, SVG Export Plug-In . SVG Version: 2.1.0 Build 146)  -->
  <defs>
    <style>
      .st0 {
        fill: url(#linear-gradient2);
      }

      .st0, .st1, .st2, .st3, .st4, .st5, .st6, .st7, .st8, .st9, .st10, .st11, .st12, .st13, .st14, .st15, .st16, .st17, .st18, .st19, .st20, .st21, .st22, .st23, .st24, .st25, .st26, .st27, .st28, .st29, .st30, .st31, .st32, .st33, .st34, .st35, .st36, .st37, .st38 {
        stroke: #000;
      }

      .st0, .st1, .st3, .st4, .st5, .st6, .st9, .st10, .st11, .st12, .st13, .st14, .st15, .st16, .st17, .st18, .st19, .st20, .st21, .st22, .st23, .st25, .st26, .st27, .st28, .st29, .st30, .st31, .st32, .st33, .st34, .st35, .st36, .st37, .st38 {
        stroke-linejoin: round;
      }

      .st0, .st28, .st29 {
        stroke-width: .2px;
      }

      .st1 {
        fill: url(#linear-gradient34);
      }

      .st1, .st2, .st3, .st4, .st5, .st10, .st11, .st12, .st13, .st14, .st15, .st16, .st17, .st20, .st22, .st24, .st25, .st30, .st31, .st32, .st34, .st35, .st37, .st38 {
        stroke-width: .3px;
      }

      .st2 {
        fill: url(#linear-gradient13);
      }

      .st3 {
        fill: url(#linear-gradient35);
      }

      .st4 {
        fill: url(#linear-gradient25);
      }

      .st5 {
        fill: url(#linear-gradient26);
      }

      .st6 {
        fill: url(#linear-gradient5);
        stroke-width: .3px;
      }

      .st7 {
        fill: url(#linear-gradient12);
      }

      .st7, .st8 {
        stroke-width: .3px;
      }

      .st8 {
        fill: url(#linear-gradient8);
      }

      .st9 {
        fill: url(#linear-gradient);
        stroke-width: .4px;
      }

      .st10 {
        fill: url(#linear-gradient28);
      }

      .st11 {
        fill: url(#linear-gradient30);
      }

      .st12 {
        fill: url(#linear-gradient32);
      }

      .st13 {
        fill: url(#linear-gradient31);
      }

      .st14 {
        fill: url(#linear-gradient33);
      }

      .st15 {
        fill: url(#linear-gradient24);
      }

      .st16 {
        fill: url(#linear-gradient22);
      }

      .st17 {
        fill: url(#linear-gradient29);
      }

      .st18 {
        fill: #e5e5e5;
        stroke-width: .4px;
      }

      .st19 {
        fill: url(#linear-gradient14);
      }

      .st19, .st21, .st23, .st33 {
        stroke-linecap: round;
      }

      .st19, .st23 {
        stroke-width: .2px;
      }

      .st20 {
        fill: url(#linear-gradient27);
      }

      .st21 {
        fill: url(#radial-gradient);
      }

      .st21, .st33 {
        stroke-width: .4px;
      }

      .st22 {
        fill: url(#linear-gradient21);
      }

      .st23 {
        fill: url(#linear-gradient10);
      }

      .st24 {
        fill: url(#linear-gradient9);
      }

      .st25 {
        fill: url(#linear-gradient16);
      }

      .st26 {
        fill: url(#linear-gradient7);
        stroke-width: .4px;
      }

      .st27 {
        fill: url(#linear-gradient1);
        stroke-width: .3px;
      }

      .st28 {
        fill: url(#linear-gradient4);
      }

      .st29 {
        fill: url(#linear-gradient3);
      }

      .st30 {
        fill: url(#linear-gradient23);
      }

      .st31 {
        fill: url(#linear-gradient20);
      }

      .st32 {
        fill: url(#linear-gradient17);
      }

      .st33 {
        fill: url(#linear-gradient11);
      }

      .st34 {
        fill: url(#linear-gradient6);
      }

      .st35 {
        fill: url(#linear-gradient18);
      }

      .st36 {
        fill: #666;
        stroke-width: .3px;
      }

      .st37 {
        fill: url(#linear-gradient15);
      }

      .st38 {
        fill: url(#linear-gradient19);
      }
    </style>
    <linearGradient id="linear-gradient" x1="685.3" y1="421.2" x2="761.9" y2="571" gradientTransform="translate(331.6 1034.1) scale(.9 -1)" gradientUnits="userSpaceOnUse">
      <stop offset="0" stop-color="#d9d9d9"/>
      <stop offset="1" stop-color="#fafafa"/>
    </linearGradient>
    <linearGradient id="linear-gradient1" x1="6597" y1="-972.9" x2="6726.1" y2="-972.9" gradientTransform="translate(373 169.8) rotate(26.3) scale(0 0)" gradientUnits="userSpaceOnUse">
      <stop offset="0" stop-color="#e5e5e5"/>
      <stop offset="1" stop-color="#666"/>
    </linearGradient>
    <linearGradient id="linear-gradient2" x1="-535.6" y1="539.8" x2="-443" y2="512.5" gradientTransform="translate(1374.1 142.6) rotate(-94.9) scale(.8 -1) skewX(2.8)" gradientUnits="userSpaceOnUse">
      <stop offset="0" stop-color="#999"/>
      <stop offset=".5" stop-color="#fafafa"/>
      <stop offset="1" stop-color="#999"/>
    </linearGradient>
    <linearGradient id="linear-gradient3" x1="-127.9" y1="1645" x2="-35.3" y2="1617.7" gradientTransform="translate(-5 -755.2) rotate(145.1) scale(.8 -1) skewX(2.8)" xlink:href="#linear-gradient2"/>
    <linearGradient id="linear-gradient4" x1="942.1" y1="789" x2="1034.7" y2="761.7" gradientTransform="translate(-92.9 888) rotate(25.1) scale(.8 -1) skewX(2.8)" xlink:href="#linear-gradient2"/>
    <linearGradient id="linear-gradient5" x1="5528.9" y1="-658.6" x2="5657.6" y2="-658.6" gradientTransform="translate(362.7 185.1) rotate(26.3) scale(.1 -.1)" xlink:href="#linear-gradient1"/>
    <linearGradient id="linear-gradient6" x1="1037.9" y1="1948" x2="1260.8" y2="1930.8" gradientTransform="translate(984.8 -649.8) scale(1 .6) skewX(-31.3)" gradientUnits="userSpaceOnUse">
      <stop offset="0" stop-color="#e5e5e5"/>
      <stop offset="1" stop-color="#fafafa"/>
    </linearGradient>
    <linearGradient id="linear-gradient7" x1="-1288.6" y1="-401.4" x2="-1271.8" y2="-260.1" gradientTransform="translate(294.8 924.1) rotate(137.4) scale(.8 .7) skewX(-39.4)" xlink:href="#linear-gradient6"/>
    <linearGradient id="linear-gradient8" x1="2080.3" y1="-638.3" x2="2080.3" y2="-686.7" gradientTransform="translate(484.7 303.5) scale(.3 -.3)" xlink:href="#linear-gradient2"/>
    <linearGradient id="linear-gradient9" x1="-136.8" y1="-4963.9" x2="-129.6" y2="-4963.9" gradientTransform="translate(652.6 145.5) rotate(-90) scale(2.6 0)" gradientUnits="userSpaceOnUse">
      <stop offset="0" stop-color="#a1a1a1"/>
      <stop offset=".5" stop-color="#e5e5e5"/>
      <stop offset="1" stop-color="gray"/>
    </linearGradient>
    <linearGradient id="linear-gradient10" x1="660.1" y1="304.6" x2="662" y2="304.6" gradientTransform="translate(-835.8 791.1) scale(2.9 -1)" xlink:href="#linear-gradient1"/>
    <linearGradient id="linear-gradient11" x1="877.4" y1="-231.5" x2="879.6" y2="-231.5" gradientTransform="translate(-37.4 380.5) scale(1.3 -.5)" gradientUnits="userSpaceOnUse">
      <stop offset="0" stop-color="#000"/>
      <stop offset="1" stop-color="#000" stop-opacity="0"/>
    </linearGradient>
    <linearGradient id="linear-gradient12" x1="2080.3" y1="-638.3" x2="2080.3" y2="-686.7" gradientTransform="translate(484.7 414.8) scale(.3 -.3)" xlink:href="#linear-gradient2"/>
    <linearGradient id="linear-gradient13" x1="-136.8" x2="-129.6" gradientTransform="translate(652.6 256.9) rotate(-90) scale(2.6 0)" xlink:href="#linear-gradient9"/>
    <linearGradient id="linear-gradient14" x1="660.1" y1="304.6" x2="662" y2="304.6" gradientTransform="translate(-835.8 902.5) scale(2.9 -1)" xlink:href="#linear-gradient1"/>
    <radialGradient id="radial-gradient" cx="751.4" cy="639.1" fx="751.4" fy="639.1" r="1.1" gradientTransform="translate(-338.9 3044.8) scale(1.9 -3.8)" gradientUnits="userSpaceOnUse">
      <stop offset="0" stop-color="#000"/>
      <stop offset="1" stop-color="#000" stop-opacity="0"/>
    </radialGradient>
    <linearGradient id="linear-gradient15" x1="588.3" y1="221.9" x2="588.3" y2="219.6" gradientTransform="translate(328.6 836.3) scale(1 -1)" gradientUnits="userSpaceOnUse">
      <stop offset="0" stop-color="#999"/>
      <stop offset="1" stop-color="#fafafa"/>
    </linearGradient>
    <linearGradient id="linear-gradient16" y1="229" y2="226.7" xlink:href="#linear-gradient15"/>
    <linearGradient id="linear-gradient17" y1="236" y2="233.8" xlink:href="#linear-gradient15"/>
    <linearGradient id="linear-gradient18" y1="243.1" y2="240.8" xlink:href="#linear-gradient15"/>
    <linearGradient id="linear-gradient19" y1="250.2" y2="247.9" xlink:href="#linear-gradient15"/>
    <linearGradient id="linear-gradient20" y1="257.3" y2="255" xlink:href="#linear-gradient15"/>
    <linearGradient id="linear-gradient21" y1="264.4" y2="262.1" xlink:href="#linear-gradient15"/>
    <linearGradient id="linear-gradient22" y1="271.5" y2="269.2" xlink:href="#linear-gradient15"/>
    <linearGradient id="linear-gradient23" y1="278.6" y2="276.3" xlink:href="#linear-gradient15"/>
    <linearGradient id="linear-gradient24" y1="285.7" y2="283.4" xlink:href="#linear-gradient15"/>
    <linearGradient id="linear-gradient25" y1="292.8" y2="290.4" xlink:href="#linear-gradient15"/>
    <linearGradient id="linear-gradient26" y1="299.8" y2="297.5" xlink:href="#linear-gradient15"/>
    <linearGradient id="linear-gradient27" y1="306.9" y2="304.6" xlink:href="#linear-gradient15"/>
    <linearGradient id="linear-gradient28" y1="314" y2="311.7" xlink:href="#linear-gradient15"/>
    <linearGradient id="linear-gradient29" y1="321.1" y2="318.8" xlink:href="#linear-gradient15"/>
    <linearGradient id="linear-gradient30" y1="328.1" y2="325.9" xlink:href="#linear-gradient15"/>
    <linearGradient id="linear-gradient31" y1="335.3" y2="333" xlink:href="#linear-gradient15"/>
    <linearGradient id="linear-gradient32" y1="342.4" y2="340" xlink:href="#linear-gradient15"/>
    <linearGradient id="linear-gradient33" y1="349.4" y2="347.1" xlink:href="#linear-gradient15"/>
    <linearGradient id="linear-gradient34" y1="356.5" y2="354.2" xlink:href="#linear-gradient15"/>
    <linearGradient id="linear-gradient35" x1="588.3" y1="363.6" x2="588.3" y2="361.3" xlink:href="#linear-gradient15"/>
  </defs>
  <g id="g3225">
    <rect id="rect3227" class="st18" x="840" y="467.8" width="224.7" height="153.9"/>
    <rect id="rect3229" class="st9" x="841.8" y="469.5" width="221.2" height="150.3"/>
    <circle id="path3231" class="st36" cx="916.9" cy="544.7" r="71.8"/>
    <g id="g3233">
	<animateTransform attributeType="XML" 
    attributeName="transform" 
    type="rotate" 
    from="0 917 544.6" 
    to="360 917 544.6" 
    dur="2s" 
    repeatCount="indefinite"/>
      <circle id="path3235" class="st27" cx="917" cy="544.6" r="6.2"/>
      <path id="path3237" class="st0" d="M847,544.7c-1.2-13.3,10.5-29.3,20.8-33.7,20.8-8.9,32.7,2.7,38.6,16.4,1.5,3.5,4.3,10,6.5,13.9-.9,2.8-.7,4.2-.5,6.5-14.1,8.4-22.7,13.5-30.9,16.6-8.2,3.1-23.2,9.3-28.6,1.1-3.2-4.9-4.6-7.4-5.8-20.7h0Z"/>
      <path id="path3239" class="st29" d="M952,605.2c-10.9,7.7-30.6,5.6-39.6-1.1-18.1-13.6-14-29.7-5.1-41.6,2.3-3,6.6-8.7,8.8-12.5,2.8-.6,3.9-1.5,5.9-2.8,14.3,8,23,13,29.8,18.5,6.8,5.5,19.7,15.5,15.2,24.2-2.7,5.2-4.1,7.6-15,15.3Z"/>
      <path id="path3241" class="st28" d="M951.9,484c12.1,5.6,20.2,23.7,18.8,34.8-2.7,22.5-18.7,26.9-33.5,25.2-3.8-.4-10.8-1.3-15.3-1.4-1.9-2.2-3.3-2.6-5.3-3.7-.2-16.4-.3-26.4,1.1-35,1.4-8.6,3.6-24.7,13.4-25.3,5.9-.3,8.7-.3,20.8,5.3Z"/>
      <circle id="path3243" class="st6" cx="917" cy="544.6" r="7.4"/>
    </g>
    <path id="path3245" class="st34" d="M840,467.8h224.7l12.9-10.2h-222.6s-15.1,10.2-15.1,10.2Z"/>
    <g id="g3247">
      <path id="path3249" class="st26" d="M1077.7,457.5l-12.9,10.2v153.9l12.9-14.5v-149.5Z"/>
      <g id="g3251">
        <path id="path3253" class="st8" d="M1069.6,479.8c-1.1,0-1.8,3.1-1.8,6.7s.7,6.7,1.8,6.7h0s5.2,0,5.2,0v-13.4h-5.2Z"/>
        <path id="path3255" class="st24" d="M1074.8,477.6c-1.4.2-2.5,4.1-2.5,8.8s1.1,8.7,2.5,8.9h2.8s0-17.7,0-17.7h-2.8Z"/>
        <ellipse id="path3257" class="st23" cx="1077.7" cy="486.5" rx="2.6" ry="8.9"/>
        <ellipse id="path3259" class="st33" cx="1077.7" cy="486.5" rx="1.1" ry="4.1"/>
      </g>
      <g id="g3261">
        <path id="path3263" class="st7" d="M1069.6,591.2c-1.1,0-1.8,3.1-1.8,6.7s.7,6.7,1.8,6.7h0s5.2,0,5.2,0v-13.4h-5.2Z"/>
        <path id="path3265" class="st2" d="M1074.8,589c-1.4.2-2.5,4.1-2.5,8.8s1.1,8.7,2.5,8.9h2.8s0-17.7,0-17.7h-2.8Z"/>
        <ellipse id="path3267" class="st19" cx="1077.7" cy="597.9" rx="2.6" ry="8.9"/>
        <ellipse id="path3269" class="st21" cx="1077.7" cy="597.9" rx="1.1" ry="4.1"/>
      </g>
    </g>
    <g id="g3271">
      <path id="path3273" class="st37" d="M941,614.4h-48.1c2.5.9,5,1.7,7.6,2.3h32.9c2.6-.6,5.1-1.4,7.6-2.3Z"/>
      <path id="path3275" class="st25" d="M955.4,607.3h-76.9c1.2.8,2.3,1.6,3.6,2.3h69.8c1.2-.7,2.4-1.6,3.6-2.3Z"/>
      <path id="path3277" class="st32" d="M965.3,600.2h-96.6c.9.8,1.9,1.5,2.8,2.3h91c.9-.8,1.9-1.5,2.8-2.3Z"/>
      <path id="path3279" class="st35" d="M972.2,593.1h-110.5c.7.8,1.3,1.5,2,2.3h106.6c.7-.7,1.3-1.5,2-2.3Z"/>
      <path id="path3281" class="st38" d="M977.6,586.1h-121.4c.5.8,1,1.5,1.5,2.3h118.4c.5-.7,1-1.5,1.5-2.3Z"/>
      <path id="path3283" class="st31" d="M982,579h-130.1c.4.8.8,1.6,1.2,2.3h127.6c.4-.8.8-1.5,1.2-2.3Z"/>
      <path id="path3285" class="st22" d="M985.4,571.9h-136.9c.3.8.6,1.5.9,2.3h135.1c.3-.8.6-1.5.9-2.3Z"/>
      <path id="path3287" class="st16" d="M988,564.8h-142.1c.2.8.4,1.5.7,2.3h140.8c.2-.8.4-1.5.7-2.3Z"/>
      <path id="path3289" class="st30" d="M989.6,557.7h-145.4c.1.8.2,1.5.4,2.3h144.6c.2-.7.2-1.5.4-2.3Z"/>
      <path id="path3291" class="st15" d="M990.5,550.6h-147.2c0,.8,0,1.5.2,2.3h146.9c0-.8,0-1.5.2-2.3Z"/>
      <path id="path3293" class="st4" d="M990.9,543.5h-147.8c0,.4,0,.8,0,1.2s0,.7,0,1.1h147.8c0-.4,0-.7,0-1.1s0-.8,0-1.2Z"/>
      <path id="path3295" class="st5" d="M990.3,536.5h-146.6c-.1.8-.2,1.5-.3,2.3h147.2c0-.8-.2-1.5-.3-2.3Z"/>
      <path id="path3297" class="st20" d="M989,529.4h-144.1c-.2.8-.4,1.5-.5,2.3h145.1c-.2-.8-.4-1.5-.5-2.3Z"/>
      <path id="path3299" class="st10" d="M987.1,522.3h-140.4c-.3.8-.5,1.5-.8,2.3h141.9c-.2-.8-.5-1.5-.8-2.3Z"/>
      <path id="path3301" class="st17" d="M984.3,515.2h-134.8c-.4.8-.7,1.5-1.1,2.3h136.9c-.3-.8-.7-1.5-1.1-2.3Z"/>
      <path id="path3303" class="st11" d="M980.7,508.1h-127.6c-.4.8-.9,1.5-1.3,2.3h130.2c-.4-.8-.9-1.5-1.3-2.3Z"/>
      <path id="path3305" class="st13" d="M976.3,501h-118.8c-.5.7-1,1.5-1.6,2.3h121.9c-.5-.8-1-1.5-1.6-2.3Z"/>
      <path id="path3307" class="st12" d="M970.4,493.9h-106.9c-.7.7-1.4,1.5-2,2.3h111c-.7-.8-1.3-1.5-2-2.3Z"/>
      <path id="path3309" class="st14" d="M962.8,486.8h-91.8c-.9.7-1.8,1.5-2.7,2.3h97.1c-.9-.8-1.8-1.6-2.7-2.3Z"/>
      <path id="path3311" class="st1" d="M952.4,479.8h-71c-1.3.7-2.5,1.5-3.7,2.3h78.4c-1.2-.8-2.5-1.6-3.8-2.3Z"/>
      <path id="path3313" class="st3" d="M933.4,472.7h-33c-2.7.6-5.3,1.4-7.8,2.3h48.7c-2.6-.9-5.2-1.7-7.8-2.3Z"/>
    </g>
  </g>
</svg>